<?xml version="1.0" encoding="utf-8"?>
<!-- Generator: Adobe Illustrator 24.1.1, SVG Export Plug-In . SVG Version: 6.00 Build 0)  -->
<svg version="1.1" id="Layer_1" xmlns="http://www.w3.org/2000/svg" xmlns:xlink="http://www.w3.org/1999/xlink" x="0px" y="0px"
	 viewBox="0 0 512 512" style="enable-background:new 0 0 512 512;" xml:space="preserve">
<g>
	<path d="M28.52,460.49c-5.12,0-10.24-1.14-14.79-3.98c-13.65-7.96-17.63-25.59-9.66-39.24l69.38-116.02
		c5.12-7.96,13.65-13.65,23.32-13.65c9.67-0.57,18.77,3.98,24.45,11.94l29.57,40.95l62.56-106.91c4.55-7.96,13.65-13.65,22.75-14.22
		c9.67-0.57,18.77,3.98,24.45,11.37l54.59,73.36L459.02,65.25c7.96-13.65,25.59-17.63,39.24-9.67c13.65,7.96,17.63,25.59,9.67,39.24
		L342.44,369.5c-5.12,7.96-13.65,13.08-22.75,13.65c-9.67,0.57-18.77-3.98-24.46-11.37l-54.59-72.79L177.52,405.9
		c-5.12,8.53-13.65,13.65-23.32,14.22c-9.67,0.57-18.77-3.98-24.45-11.95l-29.57-40.94l-47.2,79.04
		C47.86,455.37,38.19,460.49,28.52,460.49z"/>
</g>
</svg>
